<svg width="265" height="116" viewBox="0 0 265 116" fill="none" xmlns="http://www.w3.org/2000/svg">
<path d="M18.7059 86.3795C18.0191 86.3795 17.4588 86.2169 17.0251 85.8916C16.5913 85.5662 16.2479 85.0783 15.9949 84.4276L1.0844 50.3233C0.831373 49.7088 0.759079 49.2027 0.867519 48.8051C0.975959 48.3714 1.21091 48.028 1.57238 47.7749C1.96999 47.5219 2.42182 47.3954 2.92788 47.3954C3.61466 47.3954 4.12072 47.5581 4.44604 47.8834C4.8075 48.1725 5.09668 48.6063 5.31356 49.1847L19.6276 82.4215H17.8926L32.1524 49.1304C32.4055 48.5882 32.7127 48.1725 33.0742 47.8834C33.4356 47.5581 33.9417 47.3954 34.5923 47.3954C35.0984 47.3954 35.5141 47.5219 35.8394 47.7749C36.2009 48.028 36.4177 48.3714 36.49 48.8051C36.5985 49.2389 36.5262 49.7449 36.2731 50.3233L21.3627 84.4276C21.1096 85.0783 20.7662 85.5662 20.3325 85.8916C19.9349 86.2169 19.3927 86.3795 18.7059 86.3795ZM50.3644 86.2711C49.6415 86.2711 49.0993 86.0723 48.7378 85.6747C48.3763 85.2409 48.1956 84.6445 48.1956 83.8854V61.7095C48.1956 60.9504 48.3763 60.372 48.7378 59.9744C49.0993 59.5768 49.6415 59.378 50.3644 59.378C51.0512 59.378 51.5934 59.5768 51.991 59.9744C52.3886 60.372 52.5874 60.9504 52.5874 61.7095V83.8854C52.5874 84.6445 52.3886 85.2409 51.991 85.6747C51.6295 86.0723 51.0873 86.2711 50.3644 86.2711ZM50.3644 53.3054C49.4607 53.3054 48.7559 53.0704 48.2498 52.6005C47.7438 52.0945 47.4907 51.4257 47.4907 50.5944C47.4907 49.7269 47.7438 49.0762 48.2498 48.6425C48.7559 48.1725 49.4607 47.9376 50.3644 47.9376C51.3042 47.9376 52.0091 48.1725 52.479 48.6425C52.985 49.0762 53.2381 49.7269 53.2381 50.5944C53.2381 51.4257 52.985 52.0945 52.479 52.6005C52.0091 53.0704 51.3042 53.3054 50.3644 53.3054ZM75.1116 86.488C73.485 86.488 71.8403 86.2892 70.1776 85.8916C68.551 85.4939 67.0328 84.8072 65.6231 83.8312C65.2616 83.5782 65.0086 83.289 64.864 82.9637C64.7194 82.6022 64.6652 82.2588 64.7013 81.9335C64.7736 81.572 64.9182 81.2648 65.1351 81.0118C65.3881 80.7587 65.6773 80.6142 66.0026 80.578C66.3641 80.5057 66.7617 80.578 67.1955 80.7949C68.6052 81.6624 69.9607 82.2769 71.262 82.6384C72.5994 82.9637 73.9187 83.1263 75.22 83.1263C77.2804 83.1263 78.8347 82.7468 79.8829 81.9877C80.9312 81.2286 81.4553 80.1985 81.4553 78.8972C81.4553 77.8851 81.1119 77.0899 80.4251 76.5115C79.7383 75.897 78.6539 75.4271 77.1719 75.1018L72.2379 74.0174C69.9607 73.5475 68.2618 72.7342 67.1412 71.5775C66.0568 70.4208 65.5146 68.9207 65.5146 67.0772C65.5146 65.4506 65.9303 64.059 66.7617 62.9023C67.6292 61.7095 68.8401 60.7877 70.3944 60.1371C71.9487 59.4864 73.7561 59.1611 75.8164 59.1611C77.4069 59.1611 78.907 59.378 80.3167 59.8118C81.7626 60.2094 83.0638 60.86 84.2205 61.7637C84.582 62.0167 84.8169 62.324 84.9254 62.6854C85.07 63.0107 85.088 63.3541 84.9796 63.7156C84.9073 64.0409 84.7447 64.3301 84.4916 64.5831C84.2386 64.8 83.9314 64.9265 83.5699 64.9627C83.2084 64.9988 82.8289 64.8904 82.4313 64.6373C81.3469 63.9144 80.2444 63.3903 79.1238 63.065C78.0033 62.7035 76.9008 62.5228 75.8164 62.5228C73.7922 62.5228 72.256 62.9204 71.2077 63.7156C70.1595 64.5108 69.6354 65.5591 69.6354 66.8604C69.6354 67.8725 69.9607 68.7038 70.6113 69.3545C71.262 70.0051 72.2741 70.475 73.6476 70.7642L78.5817 71.7944C80.9312 72.3004 82.6843 73.1137 83.841 74.2343C85.0338 75.3187 85.6302 76.8007 85.6302 78.6803C85.6302 81.066 84.6724 82.9637 82.7566 84.3734C80.8408 85.7831 78.2925 86.488 75.1116 86.488ZM99.9142 86.2711C99.1913 86.2711 98.6491 86.0723 98.2876 85.6747C97.9262 85.2409 97.7454 84.6445 97.7454 83.8854V61.7095C97.7454 60.9504 97.9262 60.372 98.2876 59.9744C98.6491 59.5768 99.1913 59.378 99.9142 59.378C100.601 59.378 101.143 59.5768 101.541 59.9744C101.938 60.372 102.137 60.9504 102.137 61.7095V83.8854C102.137 84.6445 101.938 85.2409 101.541 85.6747C101.179 86.0723 100.637 86.2711 99.9142 86.2711ZM99.9142 53.3054C99.0106 53.3054 98.3057 53.0704 97.7997 52.6005C97.2936 52.0945 97.0406 51.4257 97.0406 50.5944C97.0406 49.7269 97.2936 49.0762 97.7997 48.6425C98.3057 48.1725 99.0106 47.9376 99.9142 47.9376C100.854 47.9376 101.559 48.1725 102.029 48.6425C102.535 49.0762 102.788 49.7269 102.788 50.5944C102.788 51.4257 102.535 52.0945 102.029 52.6005C101.559 53.0704 100.854 53.3054 99.9142 53.3054ZM148.252 86.3795C147.529 86.3795 146.986 86.1807 146.625 85.7831C146.263 85.3855 146.083 84.8252 146.083 84.1023V61.4926C146.083 60.7696 146.263 60.2274 146.625 59.866C146.986 59.4684 147.511 59.2696 148.197 59.2696C148.884 59.2696 149.408 59.4684 149.77 59.866C150.167 60.2274 150.366 60.7696 150.366 61.4926V66.1555L149.77 65.5049C150.529 63.4084 151.758 61.836 153.457 60.7877C155.192 59.7033 157.18 59.1611 159.421 59.1611C161.517 59.1611 163.252 59.5407 164.626 60.2997C166.036 61.0588 167.084 62.2155 167.771 63.7698C168.457 65.288 168.801 67.2218 168.801 69.5714V84.1023C168.801 84.8252 168.602 85.3855 168.204 85.7831C167.843 86.1807 167.319 86.3795 166.632 86.3795C165.909 86.3795 165.349 86.1807 164.951 85.7831C164.59 85.3855 164.409 84.8252 164.409 84.1023V69.8425C164.409 67.3845 163.921 65.5952 162.945 64.4747C162.005 63.318 160.487 62.7396 158.391 62.7396C155.969 62.7396 154.035 63.4987 152.589 65.0169C151.179 66.4989 150.475 68.487 150.475 70.9811V84.1023C150.475 85.6205 149.734 86.3795 148.252 86.3795ZM185.086 86.3795C184.436 86.3795 183.93 86.1988 183.568 85.8373C183.207 85.4397 183.026 84.8975 183.026 84.2107V49.5642C183.026 48.8413 183.207 48.2991 183.568 47.9376C183.93 47.5761 184.436 47.3954 185.086 47.3954C185.665 47.3954 186.117 47.5219 186.442 47.7749C186.803 47.9918 187.129 48.3714 187.418 48.9136L202.274 76.891H200.647L215.45 48.9136C215.739 48.3714 216.046 47.9918 216.371 47.7749C216.697 47.5219 217.166 47.3954 217.781 47.3954C218.395 47.3954 218.883 47.5761 219.245 47.9376C219.606 48.2991 219.787 48.8413 219.787 49.5642V84.2107C219.787 84.8975 219.606 85.4397 219.245 85.8373C218.92 86.1988 218.414 86.3795 217.727 86.3795C217.076 86.3795 216.57 86.1988 216.209 85.8373C215.847 85.4397 215.666 84.8975 215.666 84.2107V53.7391H216.968L203.413 79.1683C203.16 79.6382 202.889 79.9816 202.599 80.1985C202.346 80.3792 201.967 80.4696 201.461 80.4696C200.955 80.4696 200.557 80.3611 200.268 80.1442C199.979 79.9274 199.726 79.602 199.509 79.1683L185.791 53.6849H187.092V84.2107C187.092 84.8975 186.912 85.4397 186.55 85.8373C186.225 86.1988 185.737 86.3795 185.086 86.3795ZM231.741 86C230.946 86 230.331 85.8012 229.897 85.4036C229.5 84.9698 229.301 84.3553 229.301 83.5601V50.2148C229.301 49.4196 229.5 48.8232 229.897 48.4256C230.331 47.9918 230.946 47.7749 231.741 47.7749H242.205C248.386 47.7749 253.158 49.4015 256.519 52.6547C259.881 55.9079 261.562 60.6431 261.562 66.8604C261.562 69.969 261.128 72.7161 260.261 75.1018C259.429 77.4513 258.182 79.4394 256.519 81.066C254.857 82.6926 252.832 83.9216 250.447 84.7529C248.061 85.5843 245.314 86 242.205 86H231.741ZM233.747 82.2046H241.88C244.41 82.2046 246.597 81.8793 248.441 81.2286C250.32 80.578 251.875 79.6201 253.104 78.355C254.369 77.0899 255.309 75.4994 255.923 73.5836C256.538 71.6317 256.845 69.3906 256.845 66.8604C256.845 61.7637 255.598 57.9502 253.104 55.4199C250.609 52.8535 246.868 51.5703 241.88 51.5703H233.747V82.2046Z" fill="white"/>
<circle cx="124.875" cy="72.6886" r="12.1995" stroke="white" stroke-width="1.01662"/>
<circle cx="124.875" cy="72.6886" r="10.1853" stroke="white" stroke-width="1.01662"/>
<mask id="path-5-inside-1_24_98" fill="white">
<path fill-rule="evenodd" clip-rule="evenodd" d="M124.367 67.4361C123.618 67.4361 123.011 68.0429 123.011 68.7916V70.9942H120.809C120.06 70.9942 119.453 71.6011 119.453 72.3497V73.3664C119.453 74.115 120.06 74.7219 120.809 74.7219H123.011V76.9245C123.011 77.6732 123.618 78.28 124.367 78.28H125.384C126.132 78.28 126.739 77.6732 126.739 76.9245V74.7219H128.942C129.69 74.7219 130.297 74.115 130.297 73.3664V72.3497C130.297 71.6011 129.69 70.9942 128.942 70.9942H126.739V68.7916C126.739 68.0429 126.132 67.4361 125.384 67.4361H124.367Z"/>
</mask>
<path fill-rule="evenodd" clip-rule="evenodd" d="M124.367 67.4361C123.618 67.4361 123.011 68.0429 123.011 68.7916V70.9942H120.809C120.06 70.9942 119.453 71.6011 119.453 72.3497V73.3664C119.453 74.115 120.06 74.7219 120.809 74.7219H123.011V76.9245C123.011 77.6732 123.618 78.28 124.367 78.28H125.384C126.132 78.28 126.739 77.6732 126.739 76.9245V74.7219H128.942C129.69 74.7219 130.297 74.115 130.297 73.3664V72.3497C130.297 71.6011 129.69 70.9942 128.942 70.9942H126.739V68.7916C126.739 68.0429 126.132 67.4361 125.384 67.4361H124.367Z" fill="#709BFF"/>
<path d="M123.011 70.9942V71.3331H123.35V70.9942H123.011ZM123.011 74.7219H123.35V74.383H123.011V74.7219ZM126.739 74.7219V74.383H126.4V74.7219H126.739ZM126.739 70.9942H126.4V71.3331H126.739V70.9942ZM123.35 68.7916C123.35 68.2301 123.806 67.7749 124.367 67.7749V67.0972C123.431 67.0972 122.673 67.8558 122.673 68.7916H123.35ZM123.35 70.9942V68.7916H122.673V70.9942H123.35ZM120.809 71.3331H123.011V70.6554H120.809V71.3331ZM119.792 72.3497C119.792 71.7883 120.247 71.3331 120.809 71.3331V70.6554C119.873 70.6554 119.114 71.414 119.114 72.3497H119.792ZM119.792 73.3664V72.3497H119.114V73.3664H119.792ZM120.809 74.383C120.247 74.383 119.792 73.9278 119.792 73.3664H119.114C119.114 74.3021 119.873 75.0607 120.809 75.0607V74.383ZM123.011 74.383H120.809V75.0607H123.011V74.383ZM123.35 76.9245V74.7219H122.673V76.9245H123.35ZM124.367 77.9412C123.806 77.9412 123.35 77.486 123.35 76.9245H122.673C122.673 77.8603 123.431 78.6189 124.367 78.6189V77.9412ZM125.384 77.9412H124.367V78.6189H125.384V77.9412ZM126.4 76.9245C126.4 77.486 125.945 77.9412 125.384 77.9412V78.6189C126.319 78.6189 127.078 77.8603 127.078 76.9245H126.4ZM126.4 74.7219V76.9245H127.078V74.7219H126.4ZM128.942 74.383H126.739V75.0607H128.942V74.383ZM129.958 73.3664C129.958 73.9278 129.503 74.383 128.942 74.383V75.0607C129.878 75.0607 130.636 74.3021 130.636 73.3664H129.958ZM129.958 72.3497V73.3664H130.636V72.3497H129.958ZM128.942 71.3331C129.503 71.3331 129.958 71.7883 129.958 72.3497H130.636C130.636 71.414 129.878 70.6554 128.942 70.6554V71.3331ZM126.739 71.3331H128.942V70.6554H126.739V71.3331ZM126.4 68.7916V70.9942H127.078V68.7916H126.4ZM125.384 67.7749C125.945 67.7749 126.4 68.2301 126.4 68.7916H127.078C127.078 67.8558 126.319 67.0972 125.384 67.0972V67.7749ZM124.367 67.7749H125.384V67.0972H124.367V67.7749Z" fill="white" mask="url(#path-5-inside-1_24_98)"/>
<rect x="129.111" y="84.5098" width="2.71235" height="2.03325" transform="rotate(-26 129.111 84.5098)" fill="white"/>
<path d="M129.599 86.5873C129.517 86.419 129.587 86.2162 129.755 86.1341L132.352 84.8672C132.521 84.7852 132.723 84.855 132.805 85.0232L135.851 91.2668C136.283 92.1523 135.915 93.2203 135.029 93.6522V93.6522C134.144 94.0841 133.076 93.7163 132.644 92.8308L129.599 86.5873Z" fill="white"/>
</svg>
