<svg width="782" height="341" viewBox="0 0 782 341" fill="none" xmlns="http://www.w3.org/2000/svg">
<path d="M55.2 254.12C53.1733 254.12 51.52 253.64 50.24 252.68C48.96 251.72 47.9467 250.28 47.2 248.36L3.2 147.72C2.45333 145.907 2.24 144.413 2.56 143.24C2.88 141.96 3.57333 140.947 4.64 140.2C5.81333 139.453 7.14667 139.08 8.64 139.08C10.6667 139.08 12.16 139.56 13.12 140.52C14.1867 141.373 15.04 142.653 15.68 144.36L57.92 242.44H52.8L94.88 144.2C95.6267 142.6 96.5333 141.373 97.6 140.52C98.6667 139.56 100.16 139.08 102.08 139.08C103.573 139.08 104.8 139.453 105.76 140.2C106.827 140.947 107.467 141.96 107.68 143.24C108 144.52 107.787 146.013 107.04 147.72L63.04 248.36C62.2933 250.28 61.28 251.72 60 252.68C58.8267 253.64 57.2267 254.12 55.2 254.12ZM148.623 253.8C146.489 253.8 144.889 253.213 143.823 252.04C142.756 250.76 142.223 249 142.223 246.76V181.32C142.223 179.08 142.756 177.373 143.823 176.2C144.889 175.027 146.489 174.44 148.623 174.44C150.649 174.44 152.249 175.027 153.423 176.2C154.596 177.373 155.183 179.08 155.183 181.32V246.76C155.183 249 154.596 250.76 153.423 252.04C152.356 253.213 150.756 253.8 148.623 253.8ZM148.623 156.52C145.956 156.52 143.876 155.827 142.383 154.44C140.889 152.947 140.143 150.973 140.143 148.52C140.143 145.96 140.889 144.04 142.383 142.76C143.876 141.373 145.956 140.68 148.623 140.68C151.396 140.68 153.476 141.373 154.863 142.76C156.356 144.04 157.103 145.96 157.103 148.52C157.103 150.973 156.356 152.947 154.863 154.44C153.476 155.827 151.396 156.52 148.623 156.52ZM221.65 254.44C216.85 254.44 211.997 253.853 207.09 252.68C202.29 251.507 197.81 249.48 193.65 246.6C192.583 245.853 191.837 245 191.41 244.04C190.983 242.973 190.823 241.96 190.93 241C191.143 239.933 191.57 239.027 192.21 238.28C192.957 237.533 193.81 237.107 194.77 237C195.837 236.787 197.01 237 198.29 237.64C202.45 240.2 206.45 242.013 210.29 243.08C214.237 244.04 218.13 244.52 221.97 244.52C228.05 244.52 232.637 243.4 235.73 241.16C238.823 238.92 240.37 235.88 240.37 232.04C240.37 229.053 239.357 226.707 237.33 225C235.303 223.187 232.103 221.8 227.73 220.84L213.17 217.64C206.45 216.253 201.437 213.853 198.13 210.44C194.93 207.027 193.33 202.6 193.33 197.16C193.33 192.36 194.557 188.253 197.01 184.84C199.57 181.32 203.143 178.6 207.73 176.68C212.317 174.76 217.65 173.8 223.73 173.8C228.423 173.8 232.85 174.44 237.01 175.72C241.277 176.893 245.117 178.813 248.53 181.48C249.597 182.227 250.29 183.133 250.61 184.2C251.037 185.16 251.09 186.173 250.77 187.24C250.557 188.2 250.077 189.053 249.33 189.8C248.583 190.44 247.677 190.813 246.61 190.92C245.543 191.027 244.423 190.707 243.25 189.96C240.05 187.827 236.797 186.28 233.49 185.32C230.183 184.253 226.93 183.72 223.73 183.72C217.757 183.72 213.223 184.893 210.13 187.24C207.037 189.587 205.49 192.68 205.49 196.52C205.49 199.507 206.45 201.96 208.37 203.88C210.29 205.8 213.277 207.187 217.33 208.04L231.89 211.08C238.823 212.573 243.997 214.973 247.41 218.28C250.93 221.48 252.69 225.853 252.69 231.4C252.69 238.44 249.863 244.04 244.21 248.2C238.557 252.36 231.037 254.44 221.65 254.44ZM294.841 253.8C292.708 253.8 291.108 253.213 290.041 252.04C288.975 250.76 288.441 249 288.441 246.76V181.32C288.441 179.08 288.975 177.373 290.041 176.2C291.108 175.027 292.708 174.44 294.841 174.44C296.868 174.44 298.468 175.027 299.641 176.2C300.815 177.373 301.401 179.08 301.401 181.32V246.76C301.401 249 300.815 250.76 299.641 252.04C298.575 253.213 296.975 253.8 294.841 253.8ZM294.841 156.52C292.175 156.52 290.095 155.827 288.601 154.44C287.108 152.947 286.361 150.973 286.361 148.52C286.361 145.96 287.108 144.04 288.601 142.76C290.095 141.373 292.175 140.68 294.841 140.68C297.615 140.68 299.695 141.373 301.081 142.76C302.575 144.04 303.321 145.96 303.321 148.52C303.321 150.973 302.575 152.947 301.081 154.44C299.695 155.827 297.615 156.52 294.841 156.52ZM437.482 254.12C435.349 254.12 433.749 253.533 432.682 252.36C431.615 251.187 431.082 249.533 431.082 247.4V180.68C431.082 178.547 431.615 176.947 432.682 175.88C433.749 174.707 435.295 174.12 437.322 174.12C439.349 174.12 440.895 174.707 441.962 175.88C443.135 176.947 443.722 178.547 443.722 180.68V194.44L441.962 192.52C444.202 186.333 447.829 181.693 452.842 178.6C457.962 175.4 463.829 173.8 470.442 173.8C476.629 173.8 481.749 174.92 485.802 177.16C489.962 179.4 493.055 182.813 495.082 187.4C497.109 191.88 498.122 197.587 498.122 204.52V247.4C498.122 249.533 497.535 251.187 496.362 252.36C495.295 253.533 493.749 254.12 491.722 254.12C489.589 254.12 487.935 253.533 486.762 252.36C485.695 251.187 485.162 249.533 485.162 247.4V205.32C485.162 198.067 483.722 192.787 480.842 189.48C478.069 186.067 473.589 184.36 467.402 184.36C460.255 184.36 454.549 186.6 450.282 191.08C446.122 195.453 444.042 201.32 444.042 208.68V247.4C444.042 251.88 441.855 254.12 437.482 254.12ZM546.179 254.12C544.259 254.12 542.766 253.587 541.699 252.52C540.633 251.347 540.099 249.747 540.099 247.72V145.48C540.099 143.347 540.633 141.747 541.699 140.68C542.766 139.613 544.259 139.08 546.179 139.08C547.886 139.08 549.219 139.453 550.179 140.2C551.246 140.84 552.206 141.96 553.059 143.56L596.899 226.12H592.099L635.779 143.56C636.633 141.96 637.539 140.84 638.499 140.2C639.459 139.453 640.846 139.08 642.659 139.08C644.473 139.08 645.913 139.613 646.979 140.68C648.046 141.747 648.579 143.347 648.579 145.48V247.72C648.579 249.747 648.046 251.347 646.979 252.52C646.019 253.587 644.526 254.12 642.499 254.12C640.579 254.12 639.086 253.587 638.019 252.52C636.953 251.347 636.419 249.747 636.419 247.72V157.8H640.259L600.259 232.84C599.513 234.227 598.713 235.24 597.859 235.88C597.113 236.413 595.993 236.68 594.499 236.68C593.006 236.68 591.833 236.36 590.979 235.72C590.126 235.08 589.379 234.12 588.739 232.84L548.259 157.64H552.099V247.72C552.099 249.747 551.566 251.347 550.499 252.52C549.539 253.587 548.099 254.12 546.179 254.12ZM683.854 253C681.508 253 679.694 252.413 678.414 251.24C677.241 249.96 676.654 248.147 676.654 245.8V147.4C676.654 145.053 677.241 143.293 678.414 142.12C679.694 140.84 681.508 140.2 683.854 140.2H714.734C732.974 140.2 747.054 145 756.974 154.6C766.894 164.2 771.854 178.173 771.854 196.52C771.854 205.693 770.574 213.8 768.014 220.84C765.561 227.773 761.881 233.64 756.974 238.44C752.068 243.24 746.094 246.867 739.054 249.32C732.014 251.773 723.908 253 714.734 253H683.854ZM689.774 241.8H713.774C721.241 241.8 727.694 240.84 733.134 238.92C738.681 237 743.268 234.173 746.894 230.44C750.628 226.707 753.401 222.013 755.214 216.36C757.028 210.6 757.934 203.987 757.934 196.52C757.934 181.48 754.254 170.227 746.894 162.76C739.534 155.187 728.494 151.4 713.774 151.4H689.774V241.8Z" fill="#1F305E"/>
<circle cx="368.5" cy="214.5" r="36" stroke="#1F305E" stroke-width="3"/>
<circle cx="368.5" cy="214.5" r="30.0562" stroke="#1F305E" stroke-width="3"/>
<mask id="path-5-inside-1_24_54" fill="white">
<path fill-rule="evenodd" clip-rule="evenodd" d="M367 199C364.791 199 363 200.791 363 203V209.5H356.5C354.291 209.5 352.5 211.291 352.5 213.5V216.5C352.5 218.709 354.291 220.5 356.5 220.5H363V227C363 229.209 364.791 231 367 231H370C372.209 231 374 229.209 374 227V220.5H380.5C382.709 220.5 384.5 218.709 384.5 216.5V213.5C384.5 211.291 382.709 209.5 380.5 209.5H374V203C374 200.791 372.209 199 370 199H367Z"/>
</mask>
<path fill-rule="evenodd" clip-rule="evenodd" d="M367 199C364.791 199 363 200.791 363 203V209.5H356.5C354.291 209.5 352.5 211.291 352.5 213.5V216.5C352.5 218.709 354.291 220.5 356.5 220.5H363V227C363 229.209 364.791 231 367 231H370C372.209 231 374 229.209 374 227V220.5H380.5C382.709 220.5 384.5 218.709 384.5 216.5V213.5C384.5 211.291 382.709 209.5 380.5 209.5H374V203C374 200.791 372.209 199 370 199H367Z" fill="#709BFF"/>
<path d="M363 209.5V210.5H364V209.5H363ZM363 220.5H364V219.5H363V220.5ZM374 220.5V219.5H373V220.5H374ZM374 209.5H373V210.5H374V209.5ZM364 203C364 201.343 365.343 200 367 200V198C364.239 198 362 200.239 362 203H364ZM364 209.5V203H362V209.5H364ZM356.5 210.5H363V208.5H356.5V210.5ZM353.5 213.5C353.5 211.843 354.843 210.5 356.5 210.5V208.5C353.739 208.5 351.5 210.739 351.5 213.5H353.5ZM353.5 216.5V213.5H351.5V216.5H353.5ZM356.5 219.5C354.843 219.5 353.5 218.157 353.5 216.5H351.5C351.5 219.261 353.739 221.5 356.5 221.5V219.5ZM363 219.5H356.5V221.5H363V219.5ZM364 227V220.5H362V227H364ZM367 230C365.343 230 364 228.657 364 227H362C362 229.761 364.239 232 367 232V230ZM370 230H367V232H370V230ZM373 227C373 228.657 371.657 230 370 230V232C372.761 232 375 229.761 375 227H373ZM373 220.5V227H375V220.5H373ZM380.5 219.5H374V221.5H380.5V219.5ZM383.5 216.5C383.5 218.157 382.157 219.5 380.5 219.5V221.5C383.261 221.5 385.5 219.261 385.5 216.5H383.5ZM383.5 213.5V216.5H385.5V213.5H383.5ZM380.5 210.5C382.157 210.5 383.5 211.843 383.5 213.5H385.5C385.5 210.739 383.261 208.5 380.5 208.5V210.5ZM374 210.5H380.5V208.5H374V210.5ZM373 203V209.5H375V203H373ZM370 200C371.657 200 373 201.343 373 203H375C375 200.239 372.761 198 370 198V200ZM367 200H370V198H367V200Z" fill="black" mask="url(#path-5-inside-1_24_54)"/>
<rect x="381" y="249.384" width="8.00399" height="6" transform="rotate(-26 381 249.384)" fill="#1F305E"/>
<path d="M382.438 255.514C382.196 255.018 382.402 254.419 382.899 254.177L390.564 250.438C391.06 250.196 391.659 250.402 391.901 250.899L400.887 269.323C402.162 271.936 401.077 275.088 398.464 276.362V276.362C395.851 277.637 392.699 276.552 391.425 273.939L382.438 255.514Z" fill="#1F305E"/>
</svg>
